<svg width="33" height="33" viewBox="0 0 33 33" fill="none" xmlns="http://www.w3.org/2000/svg">
    <path d="M4 7.75C4 5.67893 5.67893 4 7.75 4H25.25C27.3211 4 29 5.67893 29 7.75V25.25C29 27.3211 27.3211 29 25.25 29H7.75C5.67893 29 4 27.3211 4 25.25V7.75Z" fill="#4B4B4B"/>
    <path d="M7.75 24C7.75 22.6193 8.86929 21.5 10.25 21.5H22.75C24.1307 21.5 25.25 22.6193 25.25 24C25.25 25.3807 24.1307 26.5 22.75 26.5H10.25C8.86929 26.5 7.75 25.3807 7.75 24Z" fill="#F7F7F7"/>
    <path d="M21.5 9C21.5 7.61929 22.6193 6.5 24 6.5C25.3807 6.5 26.5 7.61929 26.5 9C26.5 10.3807 25.3807 11.5 24 11.5C22.6193 11.5 21.5 10.3807 21.5 9Z" fill="#FFC800"/>
</svg>
