<svg width="32" height="32" viewBox="0 0 32 32" fill="none" xmlns="http://www.w3.org/2000/svg">
    <path d="M3 7.75C3 5.67893 4.67893 4 6.75 4H24.25C26.3211 4 28 5.67893 28 7.75V25.25C28 27.3211 26.3211 29 24.25 29H6.75C4.67893 29 3 27.3211 3 25.25V7.75Z" fill="#4B4B4B"/>
    <path d="M6.75 24C6.75 22.6193 7.86929 21.5 9.25 21.5H21.75C23.1307 21.5 24.25 22.6193 24.25 24C24.25 25.3807 23.1307 26.5 21.75 26.5H9.25C7.86929 26.5 6.75 25.3807 6.75 24Z" fill="#F7F7F7"/>
    <path d="M20.5 9C20.5 7.61929 21.6193 6.5 23 6.5C24.3807 6.5 25.5 7.61929 25.5 9C25.5 10.3807 24.3807 11.5 23 11.5C21.6193 11.5 20.5 10.3807 20.5 9Z" fill="#FFC800"/>
</svg>
